<?xml version="1.0" encoding="UTF-8"?>
<svg id="Layer_1" xmlns="http://www.w3.org/2000/svg" version="1.1" viewBox="295 251 1963 1963">
  <!-- Generator: Adobe Illustrator 30.6.0, SVG Export Plug-In . SVG Version: 2.1.4 Build 109)  -->
  <defs>
    <style>
      .st0 {
        fill: #fff;
      }

      .st1 {
        fill: #c9b3e5;
      }

      .st2 {
        fill: #e33c34;
      }

      .st3 {
        fill: #855d41;
      }

      .st4 {
        fill: #040403;
      }
    </style>
  </defs>
  <path class="st0" d="M0,2507V0h2508v2508H0v-1ZM910.82,2434.77l112.15,7.75,10.4,5.96,11.31-6.38c177.95,7.49,356.85,7.9,535.71.06,6.31,5.89,14.6,4.74,21.06-.63,59.3-3.02,118.51-5.61,176.5-15.64,4.56,3.94,9.66,6.13,14.63,6.05,6.51-3.36,9.1-8.01,9.8-16.4-14.89-163.93-44.76-325.17-89.78-483.53-16.57-48.76-33.9-95.48-63.67-137.26,20.67-7.87,37.08-16.42,53.98-27.76l5.43-11.89-7.04-10.29-89.81-39.21c17.82-18.6,32.29-37.37,44.17-60.23.87-5.34,1.08-9.68.65-14.29-3.92-4.08-8.3-6.48-14.16-7.16-26.86,1.26-51.18-.79-78.06-4.86l8.24-15.4c43.47-12.23,85.55-24.59,127.32-41.42,46.64,12.78,94.58,21.89,142.38,17.27,9.02-16.68-4.59-26.59-14.97-41.93,67.88,5.89,133.99-6.35,198.39-28.11,6.64-1.9,11.58-4.64,15.3-8.11,2.06-7.56,1.35-13.27-2.01-20.19-21.69-28.1-45.45-53.2-70.03-77.99,61.2-32.26,110.44-81.6,133.93-143.9,1.32-8.4,1.51-14.4-.7-21.61-5.01-3.22-11.46-4.97-18.63-4.42l-61.23,2.47c7.97-18.01,13.43-32.17,10.15-50.48,40.81-30.78,58.76-79.19,56.64-132.11,24.27-16.16,46.53-33.05,63.72-56.38,17.99-22.95,22.82-49.54,19.94-79.21-10-82.99-34.25-164.55-73.29-237.71-16.67-25.32-36.34-44.77-65.59-48.59-2.57-171.6-40.37-335.35-107.69-489.61-9.12-10.3-17.04-19.63-24.84-24.62-14.76-3.47-26.25.2-38.81,5.86-33.5,19.16-58.52,47.82-85.07,76.88-69.87,83.05-131.57,171.94-188.9,264.71-126.44-61.87-267.28-85.31-408-65.72-6.6-31.9-3.11-66.77,8.54-99.49,3.66-5.83,3.27-12.52.3-17.54-4.89-4.4-11.51-5.09-17.9-2.25-46.16,21.89-86.18,52.6-114.37,95.2-16.28,23-25,47-29.39,76.93-65.02-101.66-129.78-199.59-203.69-292.96-22.14-25.31-42.34-50.27-70.14-67.72-12.04-5.38-22.92-9.9-35.5-6.34-9.53,4.27-16.74,13.27-25.39,23.59-42.98,75.83-69.9,160.72-87.42,247.31-17.37,95.83-24.61,190.61-20.6,289.99-20.35-4.94-37.78-12.72-54.8-23.63-4.7-1.04-8.61-1.25-13.59-.91-3.1,3.92-5.07,7.34-7.19,13.28,6.14,61.9,41.43,114.97,97.65,145.65-46.75,24.36-79.97,58.85-115.28,93.36-28.65,26.43-60.03,47.62-99.33,48.84-7.31.56-13.3,2.95-16.85,8.41-1.41,6.43.63,12.66,5.9,19.06,45.82,55.76,120.41,76.21,193.64,64.82-15.89,38.81-21.46,78.45-26.29,119.92-5.03,42.53-19.31,82.55-51.48,110.65l-10.73,11.07c.39,5.63,1.7,9.5,5.58,14.91,57.76,13.56,118.14-.02,164.64-40,10.88,26.19,25.2,49.09,43.33,70.84-42.99,27.47-90.12,39.8-139.15,45.07-5.14,1.94-8.89,3.94-12.71,6.64-1.41,5.62-1.32,9.8.57,16.07,31,50.76,78.99,88.77,137.9,104.71-19.02,29.28-37,57.51-51.62,88.85-1.23,6.06-1.73,10.66-1.6,15.97,3.93,4.67,8.04,7.33,14.74,9.28,55.38,10.75,111.27.38,161.69-25.52,73.57,35.1,149.61,53.6,231.61,70.41-22.91,14.08-49.27,17.77-75.39,20.48l-11.31,4.47-.83,13.59c15.14,25.69,33.34,47.26,57.03,67.26-27.74,26.5-57.39,54.07-75.98,89.44,12.97,15.82,32.72,13.15,53.52,17.57-18.16,42.69-29.78,87.41-40.32,134.26-32.53,146.96-49.55,295.41-60.81,445.19,2.15,7.52,4.33,10.7,10.21,14.43,4.5-.68,9.42-2.67,13.31-5.12Z"/>
  <path class="st3" d="M1777.96,2425.89c-57.99,10.04-117.2,12.63-176.5,15.64-5.73-138.81-23.29-276.84-43.35-414.83-3.08-7.33-8.17-10.32-14.94-9.13-4.1,3.16-6.46,7.82-6.98,14.86,18.94,136.61,34.74,272.65,44.2,409.74-178.87,7.84-357.77,7.43-535.71-.06l26.36-387.7c-.93-7.17-3.23-12.07-7.93-14.66-6.52-.31-11.01,3.06-13.7,10.57-12.23,130.67-22.98,261.07-26.45,392.21l-112.15-7.75c9.67-134.86,23.94-268.6,50.1-401.44,12.68-63.75,26.67-124.95,51.19-184.6l27.16-.21c3.54,34.91,3.92,67.74,18.14,99.47,29.04-6.63,49.57-26.45,72.13-42.27,1.47-5.13,1.72-8.09.7-12.68-3.52-1.71-7.36-1.98-11.44-.49l-49.71,28.67c-7.12-32.62-7.92-61.34-10.49-93.67-32.96.94-62.22-.39-92.75-7.64,21.92-30.9,48.73-54.44,77.96-81.38-24.77-21.75-47.65-38.15-62.14-64.2,29.29-4.71,56.6-12.9,82.48-26.15l2.45-10.22,11.72.62,14.28-2.42c2.08-4.4,2.73-7.27,2.18-13.4l-13.32-6.83c-94.53-14.93-185.41-38.54-272.48-78.28-47.54,25.02-98.92,38.09-148.56,28.32,15.85-39.14,41.07-67.1,61.12-105.28-60.13-15.21-110.77-40.58-144.63-92.07,51.16-6.8,98.74-22.2,141.53-49.73,12.89,11.49,24.13,23.75,42.06,17.69-7.19-76.9,15.36-146.88,57.97-213.45,55.55-7.37,114.81-7.26,173.46,2.84,5.03-.54,8.37-2.05,10.95-4.83-.36-5.16-1.96-9.17-5.38-12.57l-46.14-11.38c38.95-29.95,69.19-64.55,92.39-105.92,5.44,44.92,1.87,88.86-14.41,129.79-1.85,5.36-1.51,10.28.95,15.33,4.36,2.4,9.57,3.19,15.53,1.45,36.99-15.07,68.55-37.07,99.3-62.88,60.58-53.33,106.27-118.39,139.59-193.71,3.46,37.81-3.76,75.31-16.46,111.2-.86,4.73-.46,8.39,1.03,13.11l12.78,2.7c74.75-35.64,134.97-98.4,156.99-181.13,11.78,29.78,15.66,62.43,13.31,94.83-.45,5.41.49,9.89,2.74,13.8,5.01,2.56,9.38,2.98,15.19.71,48.45-37.36,80.1-92.05,81.91-156.67,141.23,112.85,254.62,261.39,326.92,424.69-32.24-6.08-40.66-23.8-46.33-57.25-32.04,30.47-51.76,63.1-90.38,81.34,11.08-56.78,20.87-116.79,9.78-176.93-28.35,14.96-46.93,32.53-74.73,38.15,15.1-43.9,21.49-89.01,20.7-135.41-2.78-5.07-6.56-8.05-11.07-9.06-5.27,2.05-8.46,6.42-9.41,12.74-.95,47.66-7.44,93.9-25.55,137.87-1.22,4.91-1.56,8.7-1.54,13.96,3.53,3.19,7.47,5.09,13.2,6.25,25.56-5.92,47.47-14.54,71.72-29.47,1.31,54.34-4.93,107.26-20.53,159.23.94,5.18,1.86,8.42,3.52,12.74l12.91,1.18c35.26-17.32,64.87-39.74,91.37-71.55,4.13,15.82,13.25,23.43,27.25,30.29,68.59,35.31,145.86,46.94,226.3,39.4-25.49,64.23-80.25,106.54-145.19,138.69,29.44,33.56,58.99,57.93,82.79,91.85-68.48,21.88-138.48,34.62-208.17,22.13-6.34-2.13-11.98-1.87-15.51.71-3.97,5.4-3.57,11.49.51,15.93l22.4,30.11c-39.14-.41-75.45-8.17-114.23-20.15-68.29,27.31-138.64,46.82-210.85,62.07-5.84,3.08-9.19,6.9-10.18,11.74,1.99,6.19,7.28,9.44,14.01,9.44l51.5-9.68c-4.78,10.42-10.44,16.06-4.17,24.63,29.14,8.04,59.71,10.21,89.67,11.19-12.46,26.73-34.75,40.58-53.45,65.36,30.93,19.97,65.71,28,98.12,46.42-15.49,9.95-31.59,16.58-49.44,19.85-5.4,1.48-8.8,5.62-10.44,11.03.69,4.83,4.31,8.85,10.23,11.16,31.89,42.22,49.81,91.01,66.47,141.92,44.73,158.45,74.09,320.44,87.55,483.55ZM1478.83,1046.42c38.31-4.17,72.92-2.47,109.02,5.06,6.32-.64,10.3-4.52,11.21-10.68-2.57-3.43-6.11-6.16-11.67-9.47-93.57-21.84-192.45-19.61-286.3,2.11-6.91,18.88-3.96,37.87,7.4,53.71,56.11-19.12,110.63-34.45,170.34-40.73ZM1338.38,1244.9c2.16,25.33,16.36,47.59,42.29,56.65,23.72,7.56,49.31,9.78,73.03,6.15,29.01,25.05,72.54,23.51,100.28-2.2,18,.09,36.38-3.64,50.66-13.77,2.16,4.9,5.25,7.88,10.13,9.36l11.34-7.95c18.43-36.18,18.84-77.68,17.88-119.08,7.99-.73,14.46-5.04,15.87-11.23-.4-7.34-5.56-11.73-13.78-13.94-109.65-10.38-219.67-11.36-329.62-.94-8.2,1.67-11.96,8.08-11.79,14.72,1.45,6.19,7.65,9.65,15.11,9.88-.24,22.32.46,43.17,3.75,65.37,3.6,5.24,8.49,7.23,14.83,6.97ZM856.54,1319.3c27.2,12.62,59.73,13.29,89.81,8.33,31.25,17.25,75.29,12.15,95.6-19.42,17.55-37.92,16.27-79,13.15-120.48,6.39-2.74,10.68-6.73,11.04-12.54-1.43-5.28-4.54-8.76-10.83-11.46-83.21-4.02-166,.84-248.59,12.38-8.11,2.1-12.1,7.9-11.32,14.83,1.65,6.12,6.82,9.89,16.31,8.87.04,41.33,1.43,83.43,21.92,119.59,4.7,4.59,8.64,7.46,13.3,9.41,4.78-2.57,7.51-5.34,9.61-9.51ZM1209.01,1355.94c1.13-9.57,1.03-15.58-1.53-23.7l-16.08-10.29c-31.54-6.91-64.05-6.06-94.59,4.39-13.95,5.52-19.89,18.27-15.78,32.96,10.4,27.44,36.81,47.25,66.98,48.05,27.73-6.28,49.68-25.49,61-51.42ZM1660.45,1439.48l89.94-51.11c4.69-4.1,5.09-10.11,1.9-15.92-3.68-2.1-8.68-2.09-14.54-.84l-77.62,43.24,13.44-49.89-3.96-12.26-13.23-.59-79.29,44.77c-3.93,4.6-6.23,9.1-6.02,12.92,4.01,5.4,8.55,7.41,14.24,6l62.95-36.51-10.94,48.82,6.74,13.41c5.92.47,10-.04,16.38-2.05ZM809.52,1460.47l77.24-49.51c4.57-4.23,6.1-8.94,3.63-14.18-3.86-3.3-8.33-4.13-14.27-2.95l-65.72,40.21,12.73-43.48-2.82-12.16c-4.59-1.8-8.04-2.19-13.38-1.93-25.23,12.47-48.82,24.87-71.79,40.24-4.22,5.06-6.08,9.69-3.81,14.54,3.72,4.26,8.88,5.48,14.08,2.33l52-29.95-10.1,46.33,7.57,12.71c4.55.39,8.57-.26,14.64-2.2ZM1179.75,1484.11c34.45,18.56,71.19,22.39,108.19,12.38,12.15,17.61,23.49,37.5,44.1,43.7,19.37-12.51,16.77-36.77,21.63-57.29-1.75-15.79.71-27.37,14.93-36.24l4.78-13.69c-2.98-3.52-5.12-5.3-10.26-8.1l-10.08,7.37c-45.51,51.28-115.46,65.17-174.16,28.38l-33.08,24.98c-27.22,16.94-59.26,14.94-81.25-8.62-7.96.27-11.99,3.11-13.22,10.07,1.1,3.83,3.81,8.28,7.81,12.29,36.56,30.04,85.58,19.61,120.6-15.24Z"/>
  <path class="st4" d="M1777.96,2425.89c-13.46-163.11-42.82-325.1-87.55-483.55-16.66-50.91-34.58-99.7-66.47-141.92-5.92-2.31-9.55-6.33-10.23-11.16,1.64-5.41,5.03-9.55,10.44-11.03,17.86-3.28,33.96-9.9,49.44-19.85-32.41-18.42-67.2-26.45-98.12-46.42,18.69-24.78,40.99-38.63,53.45-65.36-29.96-.98-60.52-3.15-89.67-11.19-6.28-8.57-.61-14.21,4.17-24.63l-51.5,9.68c-6.72,0-12.02-3.25-14.01-9.44.99-4.84,4.34-8.66,10.18-11.74,72.21-15.25,142.56-34.77,210.85-62.07,38.78,11.98,75.09,19.74,114.23,20.15l-22.4-30.11c-4.08-4.44-4.48-10.52-.51-15.93,3.53-2.58,9.17-2.84,15.51-.71,69.69,12.5,139.69-.25,208.17-22.13-23.8-33.92-53.35-58.29-82.79-91.85,64.94-32.14,119.7-74.46,145.19-138.69-80.44,7.54-157.71-4.1-226.3-39.4-14.01-6.86-23.12-14.47-27.25-30.29-26.5,31.81-56.1,54.23-91.37,71.55l-12.91-1.18c-1.66-4.32-2.58-7.56-3.52-12.74,15.59-51.97,21.84-104.89,20.53-159.23-24.24,14.93-46.16,23.55-71.72,29.47-5.73-1.16-9.67-3.06-13.2-6.25-.02-5.26.31-9.05,1.54-13.96,18.11-43.96,24.61-90.21,25.55-137.87.95-6.32,4.14-10.7,9.41-12.74,4.51,1.02,8.29,3.99,11.07,9.06.78,46.4-5.6,91.51-20.7,135.41,27.81-5.62,46.38-23.19,74.73-38.15,11.1,60.14,1.31,120.15-9.78,176.93,38.62-18.24,58.34-50.87,90.38-81.34,5.67,33.44,14.09,51.16,46.33,57.25-72.3-163.3-185.68-311.84-326.92-424.69-1.81,64.62-33.46,119.31-81.91,156.67-5.81,2.27-10.17,1.85-15.19-.71-2.25-3.91-3.19-8.39-2.74-13.8,2.35-32.4-1.54-65.05-13.31-94.83-22.02,82.73-82.24,145.49-156.99,181.13l-12.78-2.7c-1.49-4.72-1.89-8.38-1.03-13.11,12.7-35.88,19.92-73.38,16.46-111.2-33.32,75.32-79.01,140.38-139.59,193.71-30.75,25.81-62.31,47.82-99.3,62.88-5.97,1.74-11.17.96-15.53-1.45-2.46-5.05-2.8-9.96-.95-15.33,16.29-40.92,19.86-84.87,14.41-129.79-23.2,41.37-53.44,75.98-92.39,105.92l46.14,11.38c3.41,3.39,5.02,7.41,5.38,12.57-2.58,2.78-5.91,4.29-10.95,4.83-58.65-10.1-117.91-10.21-173.46-2.84-42.61,66.57-65.16,136.55-57.97,213.45-17.94,6.06-29.17-6.2-42.06-17.69-42.79,27.53-90.37,42.93-141.53,49.73,33.87,51.49,84.5,76.86,144.63,92.07-20.04,38.18-45.27,66.14-61.12,105.28,49.63,9.76,101.01-3.31,148.56-28.32,87.07,39.73,177.95,63.34,272.48,78.28l13.32,6.83c.55,6.13-.1,9.01-2.18,13.4l-14.28,2.42-11.72-.62-2.45,10.22c-25.89,13.25-53.19,21.44-82.48,26.15,14.48,26.05,37.36,42.45,62.14,64.2-29.23,26.94-56.04,50.48-77.96,81.38,30.53,7.25,59.79,8.59,92.75,7.64,2.57,32.33,3.37,61.05,10.49,93.67l49.71-28.67c4.08-1.49,7.93-1.21,11.44.49,1.02,4.59.77,7.55-.7,12.68-22.56,15.82-43.09,35.64-72.13,42.27-14.22-31.73-14.6-64.56-18.14-99.47l-27.16.21c-24.52,59.65-38.52,120.86-51.19,184.6-26.16,132.84-40.43,266.58-50.1,401.44-3.9,2.45-8.81,4.45-13.31,5.12-5.87-3.73-8.05-6.91-10.21-14.43,11.27-149.77,28.28-298.23,60.81-445.19,10.54-46.85,22.16-91.57,40.32-134.26-20.79-4.43-40.55-1.76-53.52-17.57,18.59-35.37,48.24-62.94,75.98-89.44-23.69-19.99-41.89-41.57-57.03-67.26l.83-13.59,11.31-4.47c26.12-2.71,52.48-6.4,75.39-20.48-82.01-16.81-158.05-35.31-231.61-70.41-50.42,25.9-106.31,36.26-161.69,25.52-6.7-1.95-10.81-4.61-14.74-9.28-.13-5.31.37-9.91,1.6-15.97,14.62-31.34,32.6-59.57,51.62-88.85-58.91-15.94-106.9-53.95-137.9-104.71-1.88-6.28-1.97-10.45-.57-16.07,3.82-2.7,7.57-4.71,12.71-6.64,49.03-5.27,96.17-17.6,139.15-45.07-18.13-21.75-32.45-44.65-43.33-70.84-46.5,39.98-106.88,53.56-164.64,40-3.88-5.41-5.19-9.28-5.58-14.91l10.73-11.07c32.17-28.1,46.46-68.13,51.48-110.65,4.83-41.47,10.4-81.11,26.29-119.92-73.23,11.39-147.82-9.06-193.64-64.82-5.27-6.4-7.31-12.63-5.9-19.06,3.56-5.46,9.55-7.85,16.85-8.41,39.3-1.22,70.68-22.41,99.33-48.84,35.31-34.51,68.53-69,115.28-93.36-56.22-30.68-91.51-83.75-97.65-145.65,2.11-5.94,4.08-9.35,7.19-13.28,4.98-.35,8.89-.13,13.59.91,17.02,10.91,34.45,18.69,54.8,23.63-4.01-99.38,3.23-194.15,20.6-289.99,17.52-86.59,44.44-171.48,87.42-247.31,8.65-10.32,15.86-19.32,25.39-23.59,12.58-3.56,23.46.96,35.5,6.34,27.8,17.45,48,42.41,70.14,67.72,73.91,93.37,138.67,191.29,203.69,292.96,4.39-29.93,13.11-53.93,29.39-76.93,28.19-42.59,68.22-73.31,114.37-95.2,6.39-2.84,13.01-2.14,17.9,2.25,2.97,5.03,3.37,11.72-.3,17.54-11.65,32.72-15.14,67.58-8.54,99.49,140.72-19.59,281.56,3.85,408,65.72,57.33-92.77,119.04-181.66,188.9-264.71,26.55-29.06,51.57-57.71,85.07-76.88,12.56-5.66,24.06-9.33,38.81-5.86,7.8,4.99,15.72,14.32,24.84,24.62,67.32,154.26,105.12,318,107.69,489.61,29.25,3.82,48.92,23.26,65.59,48.59,39.04,73.17,63.29,154.72,73.29,237.71,2.89,29.67-1.94,56.26-19.94,79.21-17.19,23.33-39.45,40.22-63.72,56.38,2.12,52.92-15.83,101.33-56.64,132.11,3.28,18.31-2.18,32.48-10.15,50.48l61.23-2.47c7.17-.56,13.62,1.2,18.63,4.42,2.2,7.21,2.02,13.21.7,21.61-23.48,62.3-72.73,111.64-133.93,143.9,24.58,24.79,48.34,49.89,70.03,77.99,3.36,6.92,4.06,12.63,2.01,20.19-3.71,3.48-8.66,6.21-15.3,8.11-64.4,21.75-130.51,33.99-198.39,28.11,10.38,15.35,23.99,25.25,14.97,41.93-47.8,4.62-95.74-4.49-142.38-17.27-41.77,16.83-83.85,29.19-127.32,41.42l-8.24,15.4c26.89,4.07,51.21,6.12,78.06,4.86,5.86.68,10.24,3.08,14.16,7.16.43,4.61.23,8.96-.65,14.29-11.88,22.86-26.36,41.63-44.17,60.23l89.81,39.21,7.04,10.29-5.43,11.89c-16.9,11.34-33.31,19.88-53.98,27.76,29.77,41.78,47.09,88.5,63.67,137.26,45.02,158.36,74.89,319.6,89.78,483.53-.7,8.39-3.29,13.04-9.8,16.4-4.97.09-10.07-2.1-14.63-6.05ZM747.87,238.88c22.51,14.97,32.49,39.15,45.83,62.03,36.36,78.21,62.87,159.42,86.25,244.79,49.97-24.58,102.18-38.3,158.04-31.96-5.53-9.27-10.65-12.68-16.84-19.13-65.98-103.87-133.19-205.62-208.53-302.79-20.48-25.6-40.34-48.72-65.39-69.01-6.38-3.51-12.42-5.81-18.67-6.23l-14.06,13.1c-39.27,71.22-65.09,149.04-81.06,229.88-19.39,96.5-24.39,193.5-19.97,291.65,22.58,3.52,43.34,3.05,63.23-2.1-10.59-130.65.39-261.63,41.65-383.18,8.07-14.11,11.41-29.29,29.52-27.03ZM1848.03,660.78l-47.18,20.64c-4.02-.37-8.29-1.45-12.41-2.99-1.35-4.18-1.7-8.02-.93-12.87,10.98-37.05,20.49-72.98,27.3-113.1-43.53,23.84-77.92,55.02-112.32,88.2-4.63,2.08-8.32,1.84-14.17.13l-4.29-10.89c22.89-85.5,51.63-168.21,93.64-246.05,19.12-36.56,40.43-69.94,68.98-98.85,7.8-6.18,15.6-9.99,24.55-7.56,6.62,4.03,11.02,10.63,14.96,19.35,24.61,74.45,33.87,152.01,39.6,231.18,6.86,117.56-1.03,234.51-32.98,347.06,27.57,38.88,50.28,77.46,72.33,118.09,20.28-7.18,39.41-14.98,53.08-28.66-14.34-6.77-28.54-6.58-34.75-21.25,18.66-22.92,40.97-42.71,48.68-69.87-18.37,2.5-31.9,11.78-49.38,2.77,23.56-108.8,29.38-219.21,17.08-330.21-9.76-132.61-45.09-260.58-96.47-381.6l-15.69-15.98-19.72,5.6c-21.07,15.24-38.09,32.63-57.16,51.64-94.95,112.67-179.72,233.76-249.33,367.02,126.07,69.58,228.79,162.98,315.55,279.61,30.94-119.88,34.28-242.02,24.67-363.61-7.28-63.28-13.75-125.5-36.94-186.8-23.37,19.38-36.82,43.12-52.23,67.17-39.88,70.24-71.38,143.91-94.21,224.5,34.68-25.4,62.64-51.54,99.47-67.58,6.03-2.11,11.11-2.03,17.1,0l5.29,13.87-25.16,111.38,37.92-14.58c5.6-1.21,10.57-.74,15.96,1.54l4.15,14.02-25,67.02c13.04-1.78,22.34-1.73,26.34,9.69-5.62,21.21-16.48,39.93-29.48,58.24-4.81,1.14-7.9,1.01-12.46-.28l-2.53-10.27c8.23-13.6,15.29-25.55,21.12-39.46-16.27,2.38-27.18,4.47-30.13-8.66,10.38-22.85,19.94-42.82,27.16-67.61ZM765.32,578.68c-3.94-29.38-7.39-58.01-8.82-88.78l7.24-13.7c6.19.12,10.04.6,16.07,1.96,26.67,19.73,49.73,40.87,75.32,64.83-17.96-71.12-41.68-137.08-68.51-203.03-12.67-26.69-23.69-51.33-43.44-75.78-11.3,21.39-16.6,42.85-23.6,66.24-23.43,102.68-32.76,207.99-22.52,314.24,13.47-2.62,25.77-7.13,35.24-13.27-5.41-21.42-15.89-41.59-8.68-61.42,14.29-7.25,26.23,5.96,38.95,10.04l2.74-1.33ZM660.61,1154.55c8.56,57.51,30.57,112.16,76.35,151.97-.31-66.22,20.42-123.61,52.32-180.53l-33.48,4.21c-6.31,1.71-12.03-1.06-14.37-7.34-.09-4.67,3.14-9.48,8.8-13.57,52.03-18.68,107.56-22.22,165.16-15.28,54.16-34.63,102.84-85.02,122.3-147.7l3.66-14.08c4.6-1.07,7.46-1.38,12.3-1.26,2.51,4.2,3.98,7.64,5.07,12.51,11.22,55.55,12.01,110.02-1.05,165.84,111.34-62.22,187.92-170.28,225.05-286.59-1.09-8.11,4.86-12.74,10.28-12.77,6.38,1.07,10.14,7.14,9.09,14.12,7.91,50.6,6.58,99.4-5.28,151.61,49.66-28.77,86.23-71.24,109.88-120.81,9.75-25.59,16.86-50.66,14.58-77.78-1.49-6.03,1.07-12.07,6.2-14.79,4.91-.12,9.88,2.76,12.22,7.83,21.39,41.9,33.5,85.34,35.19,133.32,39.43-38.24,60.07-89.42,53.91-142.3-66.87-52.12-137.34-97.93-211.5-134.34-42.66-36-83.73-66.96-113.67-112.35-41.91-59.21-59.41-130.91-43.07-203.64-44.58,24.45-80.82,60.05-100.07,105.01-15.81,35.54-10.91,72.85,13.45,102.29,12.44,14.74,26.41,26.46,42.72,37.06,3.01,4.67,3.53,9.01,1.48,13.97l-12.79,1.98-40.21-26.63c-41.37-13.65-84.15-10.75-125.72,2.88-43.12,12.98-80.52,35.11-117.9,60.05-28.98,19.56-56.58,38.09-89.23,50.58-64.81,26.23-134.55,24.5-197.29-6.2,13.96,58.28,57.39,103.7,112.36,116.27,6.04-.31,9.6.5,14.89,2.52,1.27,4.24,1.47,7.21.59,12.91l-13.48,3.98c-52.57,16.78-92.57,53.79-130.98,92.6-31.44,30.91-63.59,56.28-108.83,64.91,47.52,48.57,116.37,56.86,179.02,43.48,5.88-2.95,11.95-2.94,16.76,1.03,2.67,4.86,1.97,10.75-1.48,16.42-20.47,40.92-26.5,84.52-32.16,129.77-5.73,44.03-18.41,83.94-48.58,117.04,49.13,3.55,94.63-15.03,125.48-47.56l-8.04-51.55c2.95-5.86,5.78-9.3,10.26-10.88,5.5,1.12,9.32,4.65,9.77,11.74ZM844.67,563.76c-21.18-21.73-41.9-41.59-66.83-59.61,1.39,34.38,6.76,64.7,12.68,95.35l54.14-35.74ZM764.06,581.71l1.72-1.52-1.72,1.52ZM775.46,608.94l-33.87-16.36,9.22,31.45,24.66-15.09Z"/>
  <path class="st4" d="M1601.46,2441.54c-6.46,5.37-14.76,6.52-21.06.63-9.46-137.08-25.27-273.13-44.2-409.74.52-7.04,2.87-11.71,6.98-14.86,6.78-1.18,11.87,1.8,14.94,9.13,20.06,138,37.62,276.02,43.35,414.83Z"/>
  <path class="st4" d="M1044.68,2442.11l-11.31,6.38-10.4-5.96c3.47-131.14,14.22-261.54,26.45-392.21,2.69-7.51,7.18-10.87,13.7-10.57,4.7,2.59,6.99,7.49,7.93,14.66l-26.36,387.7Z"/>
  <path class="st4" d="M1604.64,1291.73c16.78-37.12,20.78-77.87,15.51-119.52-14.61-1.95-28.48-2.98-40.7-2.01,1.44,49.32,1.06,97.68-25.48,135.31-27.74,25.71-71.28,27.24-100.28,2.2-27.1-38.45-28.39-88.78-27.07-139.95l-84.18,3.03c-7.52,25.68,4.4,50.67-4.07,74.12-6.34.27-11.23-1.72-14.83-6.97-3.29-22.21-3.99-43.05-3.75-65.37-7.46-.23-13.66-3.69-15.11-9.88-.17-6.65,3.58-13.05,11.79-14.72,109.95-10.42,219.96-9.44,329.62.94,8.21,2.21,13.38,6.6,13.78,13.94-1.41,6.18-7.88,10.5-15.87,11.23.96,41.4.55,82.9-17.88,119.08l-11.34,7.95c-4.88-1.48-7.97-4.46-10.13-9.36Z"/>
  <path class="st4" d="M946.35,1327.63c-12.07-10.92-20.04-24.21-26.21-40.16-9.58-31.82-13.63-63.68-12.12-97.18l-72.92,6.23c-3.93,42.34.2,85.4,21.44,122.79-2.1,4.17-4.83,6.95-9.61,9.51-4.66-1.95-8.6-4.82-13.3-9.41-20.49-36.16-21.88-78.26-21.92-119.59-9.49,1.02-14.67-2.75-16.31-8.87-.77-6.93,3.21-12.73,11.32-14.83,82.59-11.54,165.37-16.41,248.59-12.38,6.29,2.7,9.4,6.17,10.83,11.46-.37,5.81-4.65,9.8-11.04,12.54,3.12,41.48,4.4,82.56-13.15,120.48-20.31,31.56-64.35,36.67-95.6,19.42Z"/>
  <path class="st0" d="M1453.69,1307.7c-23.72,3.63-49.31,1.41-73.03-6.15-25.92-9.06-40.13-31.32-42.29-56.65,8.46-23.45-3.45-48.44,4.07-74.12l84.18-3.03c-1.32,51.17-.03,101.5,27.07,139.95Z"/>
  <path class="st4" d="M1478.83,1046.42c-59.71,6.28-114.24,21.61-170.34,40.73-11.36-15.84-14.31-34.84-7.4-53.71,93.84-21.72,192.73-23.95,286.3-2.11,5.56,3.3,9.11,6.03,11.67,9.47-.91,6.16-4.89,10.04-11.21,10.68-36.1-7.52-70.71-9.23-109.02-5.06Z"/>
  <path class="st0" d="M946.35,1327.63c-30.09,4.96-62.61,4.3-89.81-8.33-21.24-37.4-25.38-80.46-21.44-122.79l72.92-6.23c-1.51,33.5,2.54,65.37,12.12,97.18,6.18,15.96,14.15,29.24,26.21,40.16Z"/>
  <path class="st4" d="M1179.75,1484.11c-35.02,34.85-84.04,45.28-120.6,15.24-4-4.01-6.71-8.46-7.81-12.29,1.24-6.96,5.26-9.81,13.22-10.07,21.99,23.56,54.03,25.56,81.25,8.62l33.08-24.98c58.69,36.79,128.65,22.9,174.16-28.38l10.08-7.37c5.14,2.79,7.28,4.58,10.26,8.1l-4.78,13.69c-14.22,8.87-16.68,20.45-14.93,36.24-4.86,20.52-2.26,44.78-21.63,57.29-20.61-6.2-31.95-26.1-44.1-43.7-37,10.02-73.74,6.18-108.19-12.38ZM1328.55,1524.14c8.72-17.33,9.85-34.78,10.85-52.35l-37.76,20.21c7.79,11.27,15.89,21.5,26.91,32.15Z"/>
  <path class="st4" d="M1209.01,1355.94c-11.33,25.93-33.28,45.13-61,51.42-30.17-.8-56.58-20.61-66.98-48.05-4.11-14.7,1.82-27.44,15.78-32.96,30.55-10.45,63.06-11.3,94.59-4.39l16.08,10.29c2.56,8.12,2.66,14.13,1.53,23.7ZM1164.26,1341.88c-18.86-7.08-45.08-9.2-57.15,6.32,16.66,9.73,44.75,9.02,57.15-6.32Z"/>
  <path class="st2" d="M1660.45,1439.48c-6.38,2-10.46,2.52-16.38,2.05l-6.74-13.41,10.94-48.82-62.95,36.51c-5.69,1.41-10.24-.6-14.24-6-.21-3.82,2.09-8.32,6.02-12.92l79.29-44.77,13.23.59,3.96,12.26-13.44,49.89,77.62-43.24c5.87-1.25,10.87-1.26,14.54.84,3.19,5.8,2.79,11.81-1.9,15.92l-89.94,51.11Z"/>
  <path class="st0" d="M1604.64,1291.73c-14.29,10.14-32.67,13.86-50.66,13.77,26.54-37.63,26.92-85.99,25.48-135.31,12.22-.96,26.09.06,40.7,2.01,5.26,41.65,1.27,82.4-15.51,119.52Z"/>
  <path class="st2" d="M809.52,1460.47c-6.07,1.94-10.09,2.59-14.64,2.2l-7.57-12.71,10.1-46.33-52,29.95c-5.19,3.15-10.36,1.93-14.08-2.33-2.27-4.85-.41-9.49,3.81-14.54,22.97-15.37,46.56-27.77,71.79-40.24,5.34-.27,8.79.13,13.38,1.93l2.82,12.16-12.73,43.48,65.72-40.21c5.94-1.18,10.41-.35,14.27,2.95,2.48,5.24.95,9.95-3.63,14.18l-77.24,49.51Z"/>
  <path class="st1" d="M660.61,1154.55c-.46-7.1-4.28-10.62-9.77-11.74-4.48,1.59-7.31,5.03-10.26,10.88l8.04,51.55c-30.85,32.53-76.35,51.11-125.48,47.56,30.17-33.1,42.86-73,48.58-117.04,5.67-45.25,11.69-88.84,32.16-129.77,3.45-5.67,4.15-11.56,1.48-16.42-4.81-3.97-10.88-3.98-16.76-1.03-62.66,13.38-131.5,5.09-179.02-43.48,45.25-8.63,77.39-34.01,108.83-64.91,38.42-38.81,78.41-75.82,130.98-92.6l13.48-3.98c.88-5.69.68-8.67-.59-12.91-5.29-2.02-8.86-2.84-14.89-2.52-54.97-12.57-98.4-57.99-112.36-116.27,62.73,30.69,132.47,32.43,197.29,6.2,32.64-12.5,60.25-31.02,89.23-50.58,37.38-24.94,74.77-47.08,117.9-60.05,41.57-13.63,84.35-16.53,125.72-2.88l40.21,26.63,12.79-1.98c2.05-4.96,1.53-9.3-1.48-13.97-16.31-10.6-30.29-22.32-42.72-37.06-24.36-29.45-29.27-66.75-13.45-102.29,19.25-44.96,55.49-80.56,100.07-105.01-16.34,72.73,1.15,144.43,43.07,203.64,29.94,45.39,71.01,76.35,113.67,112.35,74.15,36.41,144.62,82.21,211.5,134.34,6.17,52.88-14.48,104.06-53.91,142.3-1.69-47.98-13.81-91.42-35.19-133.32-2.34-5.07-7.32-7.95-12.22-7.83-5.13,2.72-7.69,8.76-6.2,14.79,2.28,27.11-4.83,52.19-14.58,77.78-23.65,49.57-60.22,92.04-109.88,120.81,11.86-52.21,13.2-101.01,5.28-151.61,1.05-6.98-2.72-13.05-9.09-14.12-5.42.03-11.37,4.65-10.28,12.77-37.13,116.31-113.72,224.38-225.05,286.59,13.06-55.82,12.27-110.29,1.05-165.84-1.08-4.88-2.56-8.32-5.07-12.51-4.84-.12-7.69.19-12.3,1.26l-3.66,14.08c-19.47,62.67-68.15,113.07-122.3,147.7-57.6-6.94-113.13-3.4-165.16,15.28-5.66,4.1-8.89,8.91-8.8,13.57,2.34,6.27,8.06,9.05,14.37,7.34l33.48-4.21c-31.9,56.92-52.64,114.31-52.32,180.53-45.78-39.81-67.79-94.46-76.35-151.97ZM1269.89,626.29c1.14-17.02-8.25-15.19-18.93-19.16-39.84-.02-100.32,16.54-115.11,61.3,46.9-26.03,82.14-52.59,134.03-42.14ZM1335.44,661.87c-7.52-2.62-9-2.82-12.85-2.73l-4.59,10.75c8.79,29.95-13.28,55.51-11.79,88.02,29.14-20.8,32.68-64.56,29.22-96.05ZM1114.42,781.48c-65.44,70.8-151.1,120.8-244.92,139.12,19.96-103.89,71.65-188.42,157.02-247.37-26.61-11.67-41.21,17.46-61.48,28.9-61.46,61.2-105.98,144.18-113.52,236.99,104.56-11.9,199.31-66.64,266.48-139.92l5.58-10.88c.09-4.21-2.01-7.26-9.16-6.84Z"/>
  <path class="st3" d="M1848.03,660.78c-7.22,24.79-16.78,44.77-27.16,67.61,2.95,13.12,13.86,11.03,30.13,8.66-5.83,13.91-12.88,25.86-21.12,39.46l2.53,10.27c4.56,1.29,7.64,1.42,12.46.28,13-18.31,23.86-37.02,29.48-58.24-4-11.42-13.31-11.47-26.34-9.69l25-67.02-4.15-14.02c-5.39-2.27-10.36-2.74-15.96-1.54l-37.92,14.58,25.16-111.38-5.29-13.87c-5.99-2.02-11.07-2.1-17.1,0-36.83,16.05-64.79,42.18-99.47,67.58,22.83-80.6,54.33-154.27,94.21-224.5,15.42-24.05,28.86-47.79,52.23-67.17,23.19,61.29,29.66,123.52,36.94,186.8,9.61,121.6,6.26,243.73-24.67,363.61-86.76-116.63-189.48-210.03-315.55-279.61,69.6-133.26,154.38-254.35,249.33-367.02,19.08-19.01,36.09-36.4,57.16-51.64l19.72-5.6,15.69,15.98c51.38,121.01,86.71,248.99,96.47,381.6,12.3,111,6.48,221.41-17.08,330.21,17.48,9,31.01-.28,49.38-2.77-7.7,27.16-30.01,46.95-48.68,69.87,6.21,14.67,20.42,14.48,34.75,21.25-13.66,13.68-32.79,21.48-53.08,28.66-22.05-40.63-44.76-79.2-72.33-118.09,31.95-112.55,39.84-229.51,32.98-347.06-5.73-79.18-14.99-156.73-39.6-231.18-3.94-8.72-8.34-15.32-14.96-19.35-8.95-2.43-16.75,1.37-24.55,7.56-28.55,28.91-49.86,62.29-68.98,98.85-42.01,77.85-70.75,160.55-93.64,246.05l4.29,10.89c5.84,1.7,9.54,1.95,14.17-.13,34.39-33.18,68.79-64.36,112.32-88.2-6.81,40.12-16.32,76.04-27.3,113.1-.77,4.85-.42,8.69.93,12.87,4.12,1.54,8.39,2.62,12.41,2.99l47.18-20.64Z"/>
  <path class="st3" d="M747.87,238.88c-18.11-2.26-21.44,12.92-29.52,27.03-41.26,121.55-52.24,252.53-41.65,383.18-19.89,5.15-40.65,5.63-63.23,2.1-4.43-98.15.57-195.15,19.97-291.65,15.98-80.84,41.79-158.66,81.06-229.88l14.06-13.1c6.26.42,12.29,2.73,18.67,6.23,25.04,20.3,44.9,43.41,65.39,69.01,75.34,97.16,142.55,198.92,208.53,302.79,6.19,6.45,11.3,9.86,16.84,19.13-55.86-6.34-108.08,7.38-158.04,31.96-23.38-85.37-49.89-166.59-86.25-244.79-13.34-22.87-23.32-47.06-45.83-62.03Z"/>
  <path class="st3" d="M844.67,563.76l-54.14,35.74c-5.92-30.65-11.3-60.97-12.68-95.35,24.93,18.02,45.64,37.88,66.83,59.61Z"/>
  <polygon class="st3" points="775.46 608.94 750.8 624.03 741.59 592.59 775.46 608.94"/>
  <path class="st3" d="M762.58,580.01c-12.72-4.08-24.66-17.28-38.95-10.04-7.22,19.83,3.27,40,8.68,61.42-9.47,6.14-21.77,10.65-35.24,13.27-10.24-106.25-.91-211.56,22.52-314.24,7-23.39,12.3-44.85,23.6-66.24,19.75,24.45,30.77,49.09,43.44,75.78,26.83,65.95,50.55,131.91,68.51,203.03-25.59-23.95-48.65-45.09-75.32-64.83-6.03-1.36-9.88-1.83-16.07-1.96l-7.24,13.7c1.43,30.77,4.88,59.4,8.82,88.78l.46,1.51-1.72,1.52-1.48-1.7Z"/>
  <path class="st0" d="M1328.55,1524.14c-11.02-10.64-19.12-20.88-26.91-32.15l37.76-20.21c-1,17.58-2.12,35.03-10.85,52.35Z"/>
  <path class="st3" d="M1164.26,1341.88c-12.4,15.34-40.5,16.05-57.15,6.32,12.07-15.52,38.3-13.39,57.15-6.32Z"/>
  <path class="st4" d="M1114.42,781.48c7.16-.42,9.26,2.63,9.16,6.84l-5.58,10.88c-67.17,73.28-161.92,128.02-266.48,139.92,7.54-92.8,52.05-175.79,113.52-236.99,20.27-11.44,34.87-40.57,61.48-28.9-85.37,58.95-137.06,143.47-157.02,247.37,93.81-18.32,179.48-68.32,244.92-139.12Z"/>
  <path class="st4" d="M1269.89,626.29c-51.89-10.46-87.13,16.1-134.03,42.14,14.79-44.76,75.27-61.32,115.11-61.3,10.68,3.98,20.07,2.14,18.93,19.16Z"/>
  <path class="st4" d="M1335.44,661.87c3.46,31.49-.09,75.24-29.22,96.05-1.49-32.51,20.58-58.07,11.79-88.02l4.59-10.75c3.84-.1,5.32.11,12.85,2.73Z"/>
</svg>
